<svg width="70" height="70" viewBox="0 0 70 70" fill="none" xmlns="http://www.w3.org/2000/svg">
<path d="M55.4173 26.2499C55.4173 23.5688 54.8892 20.9139 53.8632 18.4368C52.8372 15.9597 51.3333 13.709 49.4374 11.8132C47.5415 9.91729 45.2908 8.41341 42.8138 7.38738C40.3367 6.36134 37.6818 5.83325 35.0007 5.83325C32.3195 5.83325 29.6646 6.36134 27.1875 7.38738C24.7105 8.41341 22.4597 9.91729 20.5639 11.8132C18.668 13.709 17.1641 15.9597 16.1381 18.4368C15.1121 20.9139 14.584 23.5688 14.584 26.2499C14.584 30.2953 15.7769 34.0578 17.8069 37.2312H17.7836L35.0007 64.1666L52.2177 37.2312H52.1973C54.3 33.9546 55.4176 30.1431 55.4173 26.2499ZM35.0007 34.9999C32.68 34.9999 30.4544 34.078 28.8135 32.4371C27.1725 30.7962 26.2507 28.5706 26.2507 26.2499C26.2507 23.9293 27.1725 21.7037 28.8135 20.0627C30.4544 18.4218 32.68 17.4999 35.0007 17.4999C37.3213 17.4999 39.5469 18.4218 41.1878 20.0627C42.8288 21.7037 43.7506 23.9293 43.7506 26.2499C43.7506 28.5706 42.8288 30.7962 41.1878 32.4371C39.5469 34.078 37.3213 34.9999 35.0007 34.9999Z" fill="white"/>
</svg>
