<svg width="66" height="66" viewBox="0 0 66 66" fill="none" xmlns="http://www.w3.org/2000/svg">
<path fill-rule="evenodd" clip-rule="evenodd" d="M6.63181 45.4092C6.70477 43.2363 6.55859 23.2811 6.55859 20.8306C6.55859 18.3801 8.66131 16.4117 11.1974 16.3635C13.7335 16.3153 25.4155 16.4079 25.4155 16.4079C25.6999 16.4099 26.0915 16.577 26.2921 16.7809L31.0588 21.6203C31.3589 21.9253 31.9487 22.1597 32.3754 22.1437C32.3754 22.1437 43.8878 21.7041 46.37 21.7041C48.8522 21.7041 50.7618 23.9007 50.7618 25.9959C50.7618 28.0912 50.8879 29.8224 50.8879 29.8224C50.8914 29.8892 50.9085 29.9547 50.9381 30.0148C50.9677 30.0749 51.0091 30.1283 51.0599 30.1719C51.1108 30.2155 51.1699 30.2484 51.2338 30.2685C51.2977 30.2885 51.365 30.2954 51.4316 30.2887C51.4316 30.2887 51.6533 30.1892 55.3303 30.263C59.0074 30.3372 60.7768 33.7981 59.0074 36.517C57.2381 39.2359 52.7581 45.8745 51.7601 47.2466C50.7621 48.6187 49.7765 49.5185 47.8738 49.3743C45.9712 49.23 13.6113 49.5839 11.1716 49.5839C8.73144 49.5839 6.55885 47.582 6.63181 45.4092ZM11.274 21.2501L11.0909 40.7327C11.0884 41.0197 11.208 41.055 11.3585 40.8142C11.3585 40.8142 16.0438 33.2995 16.9074 32.262C17.7711 31.2243 18.9132 30.289 20.6406 30.289C22.3679 30.289 46.2488 30.1307 46.2488 30.1307C46.2488 30.1307 46.5512 26.4731 46.1493 26.1019C45.7474 25.7306 30.2119 25.991 30.2119 25.991C29.9285 25.9957 29.5263 25.8405 29.3178 25.6445L24.3196 20.9459C24.1112 20.7499 23.7111 20.5937 23.426 20.5968L11.795 20.727C11.6572 20.7293 11.5256 20.7852 11.4284 20.883C11.3311 20.9807 11.2758 21.1125 11.2742 21.2504L11.274 21.2501ZM13.6794 45.3641L47.3404 45.4038C47.6271 45.404 47.9901 45.214 48.1535 44.9792L55.2266 34.8123C55.3893 34.5785 55.2913 34.3869 55.0062 34.3862L20.9652 34.3171C20.6823 34.3163 20.3222 34.5084 20.1657 34.7456L13.4455 44.9338C13.2885 45.1717 13.394 45.3638 13.6796 45.3643L13.6794 45.3641Z" fill="#EEE5D9"/>
</svg>
