<svg width="73" height="73" viewBox="0 0 73 73" fill="none" xmlns="http://www.w3.org/2000/svg">
<path d="M33.1955 39.8009C32.6142 39.2206 31.9214 38.7641 31.1589 38.4588L7.03847 28.7863C6.75048 28.6707 6.50473 28.4698 6.3342 28.2106C6.16368 27.9513 6.07654 27.6461 6.08448 27.3359C6.09243 27.0257 6.19508 26.7253 6.37865 26.4751C6.56223 26.2249 6.81794 26.0369 7.11148 25.9362L64.9031 6.16541C65.1727 6.06806 65.4643 6.04948 65.744 6.11185C66.0237 6.17421 66.2798 6.31494 66.4824 6.51756C66.6851 6.72019 66.8258 6.97632 66.8882 7.25601C66.9505 7.53569 66.9319 7.82735 66.8346 8.09686L47.0638 65.8885C46.9631 66.1821 46.7751 66.4378 46.5249 66.6214C46.2747 66.8049 45.9743 66.9076 45.6641 66.9155C45.3539 66.9235 45.0487 66.8363 44.7894 66.6658C44.5302 66.4953 44.3293 66.2495 44.2137 65.9615L34.5412 41.835C34.2346 41.0731 33.7768 40.3811 33.1955 39.8009ZM33.1955 39.8009L66.4726 6.53041" stroke="white" stroke-width="2" stroke-linecap="round" stroke-linejoin="round"/>
</svg>
